<?xml version="1.0" encoding="utf-8"?>
<!-- Generator: Adobe Illustrator 16.0.0, SVG Export Plug-In . SVG Version: 6.00 Build 0)  -->
<!DOCTYPE svg PUBLIC "-//W3C//DTD SVG 1.1//EN" "http://www.w3.org/Graphics/SVG/1.1/DTD/svg11.dtd">
<svg version="1.1" id="Layer_1" xmlns="http://www.w3.org/2000/svg" xmlns:xlink="http://www.w3.org/1999/xlink" x="0px" y="0px"
	 width="50px" height="50px" viewBox="0 0 50 50" enable-background="new 0 0 50 50" xml:space="preserve">
<g>
	<path id="Facebook__x28_alt_x29_" fill="#721010" d="M50,8.402c0-4.361-3.938-8.301-8.3-8.301H8.501
		c-4.361,0-8.299,3.939-8.299,8.301v33.196c0,4.362,3.938,8.301,8.3,8.301h16.599V31.086h-6.085v-8.3h6.085v-3.233
		c0-5.576,4.188-10.599,9.338-10.599h6.708v8.299h-6.708c-0.734,0-1.591,0.892-1.591,2.227v3.307h8.299v8.3h-8.299v18.813H41.7
		c4.362,0,8.3-3.938,8.3-8.301V8.402z"/>
</g>
</svg>
