<?xml version="1.0" encoding="utf-8"?>
<!-- Generator: Adobe Illustrator 16.0.0, SVG Export Plug-In . SVG Version: 6.00 Build 0)  -->
<!DOCTYPE svg PUBLIC "-//W3C//DTD SVG 1.1//EN" "http://www.w3.org/Graphics/SVG/1.1/DTD/svg11.dtd">
<svg version="1.1" id="Layer_1" xmlns="http://www.w3.org/2000/svg" xmlns:xlink="http://www.w3.org/1999/xlink" x="0px" y="0px"
	 width="50px" height="50px" viewBox="0 0 50 50" enable-background="new 0 0 50 50" xml:space="preserve">
<g>
	<path fill="#721010" d="M38.461,12.962c-1.033,0-1.875-0.842-1.875-1.875V7.339c0-1.033,0.842-1.875,1.875-1.875h3.749
		c1.033,0,1.875,0.842,1.875,1.875v3.749c0,1.033-0.842,1.875-1.875,1.875H38.461z"/>
	<path fill="#721010" d="M25.34,17.064c-1.361,0-2.618,0.399-3.699,1.055c0.337-0.104,0.688-0.173,1.058-0.173
		c2.001,0,3.623,1.621,3.623,3.624c0,2-1.622,3.625-3.623,3.625c-2.002,0-3.624-1.624-3.624-3.625c0-0.373,0.073-0.724,0.177-1.058
		c-0.66,1.082-1.059,2.337-1.059,3.697c0,3.951,3.197,7.147,7.148,7.147c3.946,0,7.148-3.194,7.148-7.147
		C32.489,20.258,29.285,17.064,25.34,17.064z"/>
	<g>
		<path fill="#721010" d="M25.34,12.962c6.21,0,11.246,5.035,11.246,11.247c0,6.213-5.037,11.249-11.246,11.249
			c-6.21,0-11.248-5.036-11.248-11.249C14.092,17.998,19.13,12.962,25.34,12.962 M25.34,9.213c-8.27,0-14.997,6.728-14.997,14.996
			c0,8.27,6.728,14.999,14.997,14.999c8.269,0,14.996-6.729,14.996-14.999C40.336,15.941,33.608,9.213,25.34,9.213L25.34,9.213z"/>
	</g>
	<path fill="#721010" d="M40.571-0.16H10.108c-5.049,0-9.138,4.09-9.138,9.138v30.461c0,5.049,4.089,9.141,9.138,9.141h30.463
		c5.047,0,9.138-4.092,9.138-9.141V8.979C49.709,3.931,45.618-0.16,40.571-0.16z M45.96,16.711H33.706
		c1.786,1.993,2.88,4.613,2.88,7.498c0,6.213-5.037,11.249-11.246,11.249c-6.21,0-11.248-5.036-11.248-11.249
		c0-2.884,1.095-5.506,2.882-7.498H4.72V8.979c0-2.97,2.417-5.389,5.389-5.389h30.463c2.973,0,5.389,2.418,5.389,5.389V16.711z"/>
</g>
</svg>
