<?xml version="1.0" encoding="utf-8"?>
<!-- Generator: Adobe Illustrator 16.0.0, SVG Export Plug-In . SVG Version: 6.00 Build 0)  -->
<!DOCTYPE svg PUBLIC "-//W3C//DTD SVG 1.1//EN" "http://www.w3.org/Graphics/SVG/1.1/DTD/svg11.dtd">
<svg version="1.1" id="Layer_1" xmlns="http://www.w3.org/2000/svg" xmlns:xlink="http://www.w3.org/1999/xlink" x="0px" y="0px"
	 width="50px" height="50px" viewBox="0 0 50 50" enable-background="new 0 0 50 50" xml:space="preserve">
<g>
	<path id="Path" fill="#721010" d="M15.079,7.036c-5.067,2.007-8.511,5.875-9.473,11.084c-0.591,3.202-0.366,6.691,1.046,9.679
		c0.314,0.665,0.693,1.304,1.142,1.896c0.218,0.289,0.452,0.564,0.705,0.826c0.45-0.16,0.885-0.36,1.299-0.595
		c1.713-0.968,2.977-2.457,4.444-3.709c-4.904-5.682,0.293-12.722,6.794-14.291c6.052-1.459,14.255,1.06,16.09,7.286
		c0.76,2.579,0.263,5.43-1.84,7.297c-1.102,0.978-2.496,1.624-3.972,1.887c-0.862,0.153-1.748,0.178-2.619,0.091
		c-0.485-0.048-0.968-0.131-1.443-0.241c-0.805-0.19-1.521-0.162-1.521-1.03c0-2.27,0-4.539,0-6.809c0-1.134,0-2.27,0-3.404
		c0-0.696,0.067-0.565-0.51-0.638c-0.456-0.055-0.91-0.1-1.367-0.136c-1.605-0.125-3.284-0.211-4.877,0.063
		c-0.596,0.102-0.634,0.007-0.634,0.652c0,0.523,0,1.047,0,1.568c0,1.272,0,2.545,0,3.817c0,3.803,0.287,7.649,0.129,11.445
		c-0.045,1.131-0.076,3.847-1.342,4.406c-1.468,0.649-2.766-0.723-4.119-1.009c0.187,1.905-1.006,5.682,1.216,6.643
		c2.036,0.883,4.38,1.211,6.528,0.482c4.499-1.525,5.953-6.533,5.384-10.646c6.944,2.074,14.442-1.397,17.412-7.669
		c2.114-4.466,1.222-10.013-1.963-13.81C35.626,5.06,23.52,3.695,15.079,7.036z"/>
</g>
</svg>
