<?xml version="1.0" encoding="utf-8"?>
<!-- Generator: Adobe Illustrator 16.0.0, SVG Export Plug-In . SVG Version: 6.00 Build 0)  -->
<!DOCTYPE svg PUBLIC "-//W3C//DTD SVG 1.1//EN" "http://www.w3.org/Graphics/SVG/1.1/DTD/svg11.dtd">
<svg version="1.1" id="Layer_1" xmlns="http://www.w3.org/2000/svg" xmlns:xlink="http://www.w3.org/1999/xlink" x="0px" y="0px"
	 width="71.371px" height="49.168px" viewBox="0 0 71.371 49.168" enable-background="new 0 0 71.371 49.168" xml:space="preserve">
<g>
	<path id="Twitter__x28_alt_x29_" fill="#721010" d="M63.284,21.858c4.01-0.329,6.728-2.151,7.775-4.624
		c-1.445,0.888-5.937,1.855-8.414,0.933c-0.122-0.582-0.257-1.134-0.391-1.634C60.367,9.598,53.899,4.008,47.123,4.685
		c0.549-0.222,1.105-0.428,1.657-0.614c0.747-0.266,5.123-0.978,4.434-2.523c-0.579-1.358-5.927,1.026-6.936,1.34
		C47.609,2.386,49.808,1.528,50.042,0c-2.035,0.28-4.036,1.242-5.579,2.641c0.559-0.599,0.981-1.33,1.072-2.118
		c-5.432,3.47-8.605,10.462-11.172,17.249c-2.014-1.955-3.803-3.493-5.406-4.348c-4.495-2.412-9.871-4.925-18.312-8.06
		c-0.259,2.792,1.384,6.506,6.106,8.975c-1.021-0.137-2.895,0.168-4.392,0.527c0.608,3.199,2.602,5.834,7.993,7.11
		c-2.465,0.16-3.738,0.723-4.892,1.93c1.122,2.226,3.858,4.843,8.786,4.306c-5.478,2.361-2.234,6.733,2.224,6.081
		C18.868,42.144,6.882,41.566,0,35c17.972,24.485,57.034,14.481,62.854-9.104c4.363,0.037,6.928-1.513,8.517-3.219
		C68.857,23.104,65.215,22.664,63.284,21.858z"/>
</g>
</svg>
